<?xml version="1.0" encoding="UTF-8"?>
<svg xmlns="http://www.w3.org/2000/svg" version="1.1" width="100" height="100" viewBox="0 0 100 100"><rect x="0" y="0" width="100" height="100" fill="#ffffff"/><g transform="scale(4.762)"><g transform="translate(0,0)"><path fill-rule="evenodd" d="M9 0L9 1L8 1L8 3L9 3L9 1L10 1L10 0ZM11 1L11 2L10 2L10 4L8 4L8 8L6 8L6 9L7 9L7 10L6 10L6 11L3 11L3 9L4 9L4 10L5 10L5 9L4 9L4 8L3 8L3 9L2 9L2 8L0 8L0 9L1 9L1 13L4 13L4 12L5 12L5 13L8 13L8 15L9 15L9 14L10 14L10 17L12 17L12 18L11 18L11 19L10 19L10 18L9 18L9 17L8 17L8 18L9 18L9 19L8 19L8 21L11 21L11 19L13 19L13 18L15 18L15 19L17 19L17 18L19 18L19 17L20 17L20 19L21 19L21 16L19 16L19 17L17 17L17 16L18 16L18 15L17 15L17 14L18 14L18 13L19 13L19 15L20 15L20 13L21 13L21 12L20 12L20 11L21 11L21 10L20 10L20 8L18 8L18 10L17 10L17 8L14 8L14 10L17 10L17 14L16 14L16 12L15 12L15 11L14 11L14 12L12 12L12 11L13 11L13 9L11 9L11 8L13 8L13 6L12 6L12 4L11 4L11 2L12 2L12 3L13 3L13 2L12 2L12 1ZM10 4L10 6L9 6L9 7L10 7L10 6L11 6L11 7L12 7L12 6L11 6L11 4ZM8 8L8 10L7 10L7 11L6 11L6 12L7 12L7 11L8 11L8 10L9 10L9 9L10 9L10 8ZM10 10L10 12L11 12L11 10ZM19 10L19 11L18 11L18 12L19 12L19 13L20 13L20 12L19 12L19 11L20 11L20 10ZM8 12L8 13L9 13L9 12ZM14 12L14 13L13 13L13 14L14 14L14 15L12 15L12 14L11 14L11 13L10 13L10 14L11 14L11 16L12 16L12 17L15 17L15 16L16 16L16 15L15 15L15 12ZM9 19L9 20L10 20L10 19ZM14 20L14 21L15 21L15 20ZM16 20L16 21L18 21L18 20ZM19 20L19 21L20 21L20 20ZM0 0L0 7L7 7L7 0ZM1 1L1 6L6 6L6 1ZM2 2L2 5L5 5L5 2ZM14 0L14 7L21 7L21 0ZM15 1L15 6L20 6L20 1ZM16 2L16 5L19 5L19 2ZM0 14L0 21L7 21L7 14ZM1 15L1 20L6 20L6 15ZM2 16L2 19L5 19L5 16Z" fill="#000000"/></g></g></svg>
